PathFileType  4	(X/Y/Z) C:\Users\antoi\Documents\MyRepositories\mobilecap\ResultsAnalysis
DataRate	CameraRate	NumFrames	NumMarkers	Units	OrigDataRate	OrigDataStartFrame	OrigNumFrames
100.0	100.0	4	51	mm	100.0	1	1281
Frame#	Time	r_knee			r_shank_antsup			r_ankle			r_calc			r_5meta			r_toe			L_knee			L_shank_antsup			L_ankle			L_calc			L_5meta			L_toe			r_sh2			r_sh3			r_sh4			L_sh2			L_sh3			r_thigh1			r_thigh2			r_thigh3			r_thigh4			r_thigh5			L_thigh1			L_thigh2			L_thigh3			L_thigh4			r.ASIS			r.PSIS			L.ASIS			L.PSIS			C7			R_Shoulder			L_Shoulder			R_Sternum			L_Sternum			R_humerus			R_elbow_med			R_elbow_lat			R_forearm			R_wrist_radius			R_wrist_ulna			L_humerus			L_elbow_med			L_elbow_lat			L_forearm			L_wrist_radius			L_wrist_ulna			R_HJC			L_HJC			R_HJC_reg			L_HJC_reg			
		X1	Y1	Z1	X2	Y2	Z2	X3	Y3	Z3	X4	Y4	Z4	X5	Y5	Z5	X6	Y6	Z6	X7	Y7	Z7	X8	Y8	Z8	X9	Y9	Z9	X10	Y10	Z10	X11	Y11	Z11	X12	Y12	Z12	X13	Y13	Z13	X14	Y14	Z14	X15	Y15	Z15	X16	Y16	Z16	X17	Y17	Z17	X18	Y18	Z18	X19	Y19	Z19	X20	Y20	Z20	X21	Y21	Z21	X22	Y22	Z22	X23	Y23	Z23	X24	Y24	Z24	X25	Y25	Z25	X26	Y26	Z26	X27	Y27	Z27	X28	Y28	Z28	X29	Y29	Z29	X30	Y30	Z30	X31	Y31	Z31	X32	Y32	Z32	X33	Y33	Z33	X34	Y34	Z34	X35	Y35	Z35	X36	Y36	Z36	X37	Y37	Z37	X38	Y38	Z38	X39	Y39	Z39	X40	Y40	Z40	X41	Y41	Z41	X42	Y42	Z42	X43	Y43	Z43	X44	Y44	Z44	X45	Y45	Z45	X46	Y46	Z46	X47	Y47	Z47	X48	Y48	Z48	X49	Y49	Z49	X50	Y50	Z50	X51	Y51	Z51	

1	0.00000000	-219.04100	504.50276	-372.06540	-186.63086	460.68856	-370.24286	-257.71931	100.51273	-360.47437	-308.10815	58.81671	-412.27512	-139.25610	39.64761	-304.48389	-92.03278	61.81251	-353.46579	-198.12114	502.42975	-791.29904	-180.87485	421.97119	-813.57897	-241.54391	99.47607	-801.59570	-296.58501	56.64958	-750.69409	-123.18130	41.59170	-838.94763	-77.38261	59.43536	-785.87006	-190.99903	345.18081	-368.49830	-258.23008	463.32390	-341.55957	-263.75545	348.29706	-327.70559	-268.16915	437.19966	-817.66445	-275.35146	315.15828	-825.58509	-89.33620	780.92383	-455.70352	-95.23534	672.02455	-432.67374	-125.44766	663.43143	-371.29956	-163.85044	802.09800	-373.38187	-172.75214	689.05267	-353.58722	-127.45682	821.40610	-767.21226	-139.69506	683.08752	-796.12198	-239.54342	828.16072	-758.01321	-250.96707	687.32789	-763.14040	-100.76028	964.39600	-445.31344	-285.27292	990.87097	-536.64871	-84.13786	954.48693	-687.17816	-281.06572	991.66065	-635.09198	-258.59259	1454.79085	-593.56767	-185.31360	1415.81137	-419.81720	-179.83941	1411.40945	-752.00969	-141.15799	1368.99855	-566.74593	-136.86711	1364.86157	-602.39099	-209.84583	1180.84298	-333.92911	-266.52015	1077.99906	-375.92447	-239.49868	1093.74255	-311.35601	-105.50861	1126.44264	-329.62470	-22.88528	1172.95532	-362.49491	-8.20972	1130.78104	-354.74183	-201.46184	1182.57827	-837.25436	-236.53737	1067.14359	-782.93931	-225.41526	1076.14725	-854.35592	-85.72788	1115.70094	-829.67581	-1.28006	1165.96582	-790.55637	14.96255	1124.08932	-790.99995	-169.83522	879.83052	-487.02534	-168.79303	883.14503	-677.66507	-163.47922	883.50755	-482.43757	-156.64171	884.79094	-642.42724	
2	0.01000000	-219.23983	504.43977	-371.99710	-186.80806	460.76939	-370.07711	-257.59195	100.51618	-360.33335	-308.11895	58.81000	-412.27504	-139.29053	39.66679	-304.47193	-92.03683	61.81425	-353.46398	-198.36008	502.44994	-790.58694	-180.99282	422.03558	-813.48961	-241.53810	99.47410	-801.60042	-296.62126	56.62216	-750.70106	-123.17425	41.57867	-838.93784	-77.39725	59.45930	-785.80257	-191.07289	345.55301	-368.69321	-258.73904	463.46921	-341.40747	-264.07361	348.32891	-327.60619	-268.26516	437.17209	-817.63976	-275.55788	315.21985	-825.38341	-89.61307	780.96784	-455.64309	-95.50667	672.03253	-432.59694	-125.69561	663.37003	-371.22460	-164.10885	802.11817	-373.17420	-173.14850	688.91969	-353.67707	-127.81870	821.39417	-766.99191	-139.90612	683.06279	-795.97843	-239.91343	828.02110	-757.75609	-251.16090	687.30603	-763.13161	-101.08338	964.56654	-445.19726	-285.57688	990.90188	-536.57708	-84.47630	954.46291	-687.06020	-281.48676	991.78010	-634.95288	-258.50220	1454.87878	-593.36130	-185.20299	1415.91782	-419.77349	-179.80054	1411.43024	-751.90022	-141.14563	1369.07048	-566.72751	-136.85467	1364.90457	-602.25848	-209.71648	1180.91435	-333.72663	-266.41502	1077.98010	-375.85759	-239.36923	1093.94494	-311.15783	-105.33899	1126.57221	-329.38777	-22.81876	1172.94924	-362.52595	-8.10809	1130.82765	-354.64614	-201.46974	1182.62085	-837.24089	-236.54878	1067.16515	-782.93218	-225.42373	1076.21944	-854.36211	-85.72547	1115.74273	-829.51993	-1.29099	1165.83154	-790.31719	14.95810	1124.00235	-790.92605	-170.17416	879.95477	-486.86202	-169.15681	883.16053	-677.50375	-163.63864	883.43082	-482.30304	-156.98642	884.85918	-642.30260	
3	0.02000000	-219.47186	504.48386	-371.83803	-186.96221	460.83241	-369.96892	-257.58790	100.46174	-360.25445	-308.12448	58.80144	-412.27696	-139.30033	39.66300	-304.47043	-92.04730	61.80215	-353.47577	-198.52681	502.43017	-790.68183	-181.12118	422.07439	-813.49541	-241.53952	99.46192	-801.60133	-296.63815	56.61469	-750.71377	-123.17670	41.57427	-838.95549	-77.41942	59.45419	-785.83291	-191.17233	345.50662	-368.64001	-259.02466	463.49914	-341.26307	-264.13683	348.38564	-327.42155	-268.36936	437.17271	-817.63923	-275.81564	315.33752	-825.10403	-89.91885	781.00013	-455.50692	-95.81825	672.04285	-432.59175	-126.01392	663.36639	-371.09438	-164.39403	802.09948	-372.97911	-173.48107	688.96705	-353.48499	-128.21399	821.38520	-766.87995	-140.15673	682.99977	-795.86006	-240.34903	827.86856	-757.45842	-251.41390	687.25246	-762.98878	-101.44108	964.59680	-445.10027	-285.94984	990.89556	-536.63008	-84.85051	954.45437	-686.92904	-281.88230	991.87264	-634.92774	-258.41259	1454.97978	-593.22754	-185.05382	1415.99805	-419.67652	-179.74783	1411.45843	-751.76525	-141.12957	1369.07966	-566.70795	-136.82288	1364.92179	-602.17158	-209.55995	1181.00509	-333.54307	-266.28239	1078.02770	-375.70005	-239.25727	1094.14667	-310.77688	-105.15679	1126.65128	-329.18436	-22.67223	1172.93398	-362.52965	-8.03096	1130.81831	-354.64140	-201.46643	1182.67708	-837.18847	-236.55156	1067.18750	-782.93361	-225.39884	1076.31269	-854.39027	-85.69464	1115.72876	-829.35947	-1.25987	1165.70839	-790.14033	14.99556	1123.86561	-790.77686	-170.59122	879.98334	-486.80178	-169.51591	883.17945	-677.44335	-163.94309	883.32169	-482.26157	-157.32327	884.91197	-642.23891	
4	0.03000000	-219.74814	504.57883	-371.63960	-187.12528	460.85116	-369.92984	-257.66015	100.40324	-360.25354	-308.12536	58.79087	-412.28079	-139.29721	39.63536	-304.46659	-92.05678	61.79036	-353.48254	-198.70070	502.40857	-791.05597	-181.30432	422.06670	-813.46473	-241.55126	99.44426	-801.60165	-296.63972	56.61316	-750.72736	-123.19302	41.57335	-839.00005	-77.44537	59.43023	-785.91612	-191.28550	345.40367	-368.57955	-259.13334	463.33032	-341.15989	-263.94971	348.55939	-327.13363	-268.50569	437.16672	-817.60658	-275.87914	315.30555	-825.03962	-90.20393	781.03750	-455.33347	-96.16703	672.09113	-432.60415	-126.43323	663.46472	-370.89820	-164.68772	802.06272	-372.86191	-173.74794	689.11889	-353.06017	-128.64669	821.42450	-766.89937	-140.47524	682.97398	-795.82541	-240.80930	827.73287	-757.21817	-251.73925	687.15585	-762.74939	-101.86269	964.58419	-445.03136	-286.37835	990.93515	-536.66774	-85.14104	954.61026	-687.02925	-282.27824	991.90838	-634.88569	-258.31074	1455.08130	-593.15761	-184.87777	1416.04556	-419.52695	-179.67420	1411.48856	-751.63956	-141.11673	1369.05640	-566.64777	-136.77459	1364.95548	-602.09648	-209.37054	1181.13843	-333.35133	-266.11832	1078.12572	-375.48074	-239.10903	1094.34717	-310.30195	-104.96428	1126.70137	-328.99221	-22.45511	1172.90879	-362.51077	-7.91701	1130.78984	-354.64218	-201.44223	1182.73697	-837.12246	-236.56394	1067.19043	-782.90784	-225.35578	1076.40764	-854.41421	-85.63858	1115.68196	-829.22543	-1.19733	1165.60502	-790.01568	15.07478	1123.72611	-790.53558	-170.96652	879.98659	-486.86549	-169.85093	883.30448	-677.50469	-164.36960	883.36356	-482.24609	-157.68682	884.94964	-642.33370	
